<svg xmlns="http://www.w3.org/2000/svg" xmlns:xlink="http://www.w3.org/1999/xlink" version="1.0" x="0px" y="0px" viewBox="0 0 1200 1500" enable-background="new 0 0 1200 1200" xml:space="preserve"><g><path d="M1117.345,658.762l-44.56-7.889c-0.013,0.135-0.029,0.27-0.042,0.405l-2.713-0.478l11.964,0.012   c23.603,0.024,42.803-19.08,42.9-42.683c0.001-0.304,0.002-0.607,0.003-0.911c0.057-23.653-19.149-42.858-42.802-42.888   l-20.222-0.026l10.879-1.918c0.01,0.107,0.023,0.213,0.033,0.32l44.646-7.888c9.883-1.733,18.726-7.888,22.887-16.991   c14.809-32.354-7.966-59.921-34.82-59.543c-2.715-0.104-5.482,0.074-8.266,0.56l-40.922,7.216l11.377-4.125   c22.234-8.062,33.755-32.654,25.686-54.886c-0.11-0.303-0.22-0.606-0.33-0.908c-8.095-22.178-32.661-33.608-54.857-25.56   l-18.565,6.732l9.057-5.229c0.135,0.285,0.278,0.565,0.413,0.85l39.272-22.627c8.669-5.028,14.824-13.784,15.604-23.754   c2.416-29.601-18.606-47.14-40.251-46.631c-6.946-0.181-14.028,1.49-20.49,5.218l-35.988,20.778l9.199-7.695   c18.132-15.168,20.569-42.201,5.402-60.335c-0.189-0.226-0.378-0.452-0.567-0.677c-15.185-18.095-42.197-20.455-60.313-5.295   l-15.41,12.895l6.689-7.971c0.35,0.345,0.709,0.681,1.058,1.026l29.215-34.764c6.502-7.716,9.276-18.118,6.589-27.742   c-6.259-22.595-23.647-33.13-40.612-32.659c-11.431-0.257-22.869,4.477-30.788,13.915l-26.634,31.74l6.014-10.38   c11.846-20.446,4.908-46.668-15.53-58.528c-0.279-0.162-0.557-0.323-0.836-0.484c-20.467-11.826-46.681-4.812-58.522,15.646   l-4.72,8.155l15.235-41.873c3.467-9.449,2.514-20.199-3.381-28.348c-10.061-14.054-23.55-19.868-36.263-19.435   c-16.175-0.263-31.442,9.623-37.281,25.67l-14.166,38.921l2.09-11.753c4.099-23.048-11.03-45.383-34.07-49.526   c-0.343-0.062-0.687-0.123-1.031-0.184c-0.344-0.061-0.687-0.122-1.031-0.182c-23.055-4.056-44.958,11.694-49.057,34.741   l-1.537,8.642v-43.28c0-9.969-4.508-19.766-12.744-25.4c-9.145-6.306-18.471-8.922-27.107-8.737   c-22.053-0.612-40.122,17.078-40.122,38.993v41.361l-2.046-11.734c-4.061-23.286-26.249-38.909-49.538-34.865   c-0.317,0.055-0.635,0.111-0.952,0.166c-23.273,4.086-38.827,26.308-34.758,49.584l1.611,9.215l-14.751-40.463   c-3.468-9.45-11.01-17.078-20.72-19.593c-5.06-1.315-9.877-1.844-14.403-1.712c-29.789-0.394-47.551,27.654-38.51,52.491   l14.262,39.185l-6.049-10.517c-11.778-20.477-37.947-27.575-58.44-15.825c-0.255,0.146-0.511,0.293-0.766,0.44   c-20.489,11.792-27.523,38.007-15.732,58.498l5.813,10.101l-25.749-30.71c-7.974-9.518-19.519-14.258-31.029-13.932   c-16.913-0.351-34.184,10.214-40.352,32.73c-2.643,9.647,0.163,20.004,6.592,27.666l29.65,35.334l-9.127-7.669   c-18.07-15.183-45.061-12.902-60.289,5.13c-0.2,0.236-0.399,0.473-0.598,0.71c-15.22,18.089-12.876,45.128,5.206,60.355   l15.364,12.938l-6.286-3.629c0.181-0.259,0.355-0.524,0.536-0.783l-39.359-22.712c-5.141-2.982-11.012-4.517-16.82-4.398   c-4.631-0.191-9.281,0.654-13.56,2.689c-34.573,16.449-32.329,56.675-6.404,71.643l36.089,20.836l-11.49-4.204   c-22.213-8.127-46.862,3.278-54.965,25.5c-0.104,0.285-0.208,0.57-0.311,0.856c-8.047,22.189,3.388,46.742,25.552,54.858   l18.742,6.862l-6.903-1.217c0.026-0.1,0.049-0.201,0.075-0.3L96.8,478.874c-2.451-0.432-4.888-0.621-7.289-0.593   c-27.307-1.041-50.844,26.829-35.825,59.585c4.173,9.101,12.986,15.242,22.845,16.98l45.472,8.018l-11.963-0.012   c-23.603-0.024-42.803,19.081-42.9,42.683c-0.001,0.304-0.002,0.607-0.003,0.911c-0.057,23.653,19.149,42.858,42.802,42.888   l20.234,0.026l-53.565,9.445c-10.642,1.876-19.7,9.035-23.815,19.026c-12.874,31.251,9.071,57.593,35.195,57.593   c0.544,0,1.089-0.013,1.637-0.036c0.109,0.001,0.217,0.01,0.326,0.01c2.254,0,4.508-0.174,6.849-0.607l37.224-6.569l-9.678,3.509   c-22.234,8.062-33.754,32.654-25.686,54.886c0.11,0.303,0.22,0.606,0.331,0.908c8.096,22.178,32.661,33.608,54.856,25.56   l18.585-6.739l-46.841,27.044c-8.575,4.951-14.763,13.581-15.599,23.447c-2.486,29.318,17.96,46.926,39.354,46.926   c0.342,0,0.685-0.024,1.028-0.033c0.318,0.008,0.636,0.024,0.955,0.024c6.589,0,13.264-1.647,19.42-5.201l29.505-17.005   l-4.656,3.895c-18.132,15.169-20.569,42.201-5.402,60.335c0.189,0.226,0.378,0.452,0.568,0.677   c15.185,18.095,42.197,20.455,60.313,5.295l15.432-12.914l-35.049,41.769c-5.588,6.659-8.904,19.132-6.614,27.517   c6.073,22.239,22.922,32.862,39.59,32.862c0.251,0,0.502-0.015,0.753-0.02c0.394,0.012,0.789,0.024,1.183,0.024   c11.183,0,22.193-4.768,29.909-13.958l20.42-24.355l-1.746,3.013c-11.846,20.446-4.908,46.668,15.53,58.528   c0.279,0.162,0.557,0.323,0.836,0.484c20.467,11.826,46.681,4.812,58.522-15.646l9.991-17.263l-18.592,51.082   c-3.511,9.647-2.476,20.652,3.692,28.858c9.854,13.11,22.513,18.836,34.663,18.836c0.544,0,1.087-0.014,1.628-0.037   c0.109,0.001,0.218,0.01,0.326,0.01c15.951,0,30.863-9.796,36.671-25.661l10.304-28.273l-0.197,1.11   c-4.099,23.048,11.03,45.383,34.07,49.526c0.343,0.062,0.687,0.123,1.03,0.184s0.687,0.122,1.031,0.182   c23.055,4.055,44.958-11.694,49.057-34.742l3.492-19.635v54.234c0,10.019,4.522,19.774,12.773,25.458   c9.202,6.339,18.589,8.944,27.272,8.718c21.969,0.498,39.928-17.167,39.928-38.993v-30.15l0.091,0.523   c4.061,23.286,26.249,38.909,49.538,34.865c0.317-0.055,0.635-0.111,0.952-0.166c23.274-4.086,38.827-26.308,34.758-49.584   l-3.445-19.704l16.907,46.451c5.765,15.844,20.725,25.682,36.662,25.682c0.431,0,0.864-0.025,1.296-0.039   c0.216,0.004,0.431,0.012,0.648,0.012c12.484,0,25.574-5.982,35.111-19.852c5.721-8.149,6.588-18.725,3.121-28.088l-12.479-34.352   l0.739,1.284c11.778,20.477,37.947,27.575,58.44,15.825c0.255-0.146,0.511-0.293,0.766-0.44   c20.489-11.792,27.523-38.007,15.733-58.497l-9.975-17.335l31.856,37.963c7.717,9.198,18.773,13.935,29.906,13.935   c0.347,0,0.695-0.012,1.042-0.021c0.307,0.007,0.613,0.025,0.92,0.025c16.732,0,33.637-10.663,39.619-33.03   c2.167-8.323-1.127-20.72-6.676-27.395l-24.941-29.678l2.387,2.01c18.059,15.207,45.059,12.948,60.305-5.078   c0.208-0.246,0.416-0.492,0.623-0.739c15.239-18.087,12.905-45.143-5.186-60.377l-15.368-12.941l42.895,24.766   c6.142,3.547,12.852,5.236,19.468,5.236c0.401,0,0.801-0.019,1.201-0.031c0.238,0.004,0.477,0.022,0.714,0.022   c21.413,0,41.872-17.599,39.358-46.901c-0.78-9.883-7.022-18.552-15.604-23.494l-37.052-21.347l6.319,2.312   c22.215,8.128,46.867-3.279,54.967-25.505c0.109-0.299,0.217-0.598,0.326-0.897c8.048-22.208-3.413-46.778-25.605-54.871   l-18.6-6.784l48.514,8.555c2.29,0.402,4.568,0.601,6.819,0.601c0.421,0,0.838-0.026,1.256-0.039   c0.226,0.004,0.453,0.014,0.679,0.014c26.181,0,48.115-26.355,35.197-57.564C1137.111,667.864,1128.009,660.669,1117.345,658.762z    M470.299,1066.313l0.114-0.313l-0.058,0.329C470.335,1066.323,470.317,1066.318,470.299,1066.313z M423.14,745.541   c-73.689,0-133.94-57.391-138.448-130.039c-0.174-2.861-0.26-5.721-0.26-8.669c0-76.637,62.072-138.708,138.708-138.708   c76.636,0,138.708,62.071,138.708,138.708c0,2.948-0.087,5.808-0.26,8.669C557.08,688.151,496.829,745.541,423.14,745.541z    M635.032,1082.22v-0.894l0.154,0.883C635.135,1082.213,635.083,1082.216,635.032,1082.22z M795.513,1040.875l-0.666-1.831   l0.974,1.693C795.718,1040.783,795.615,1040.828,795.513,1040.875z M774.245,745.541c-73.689,0-133.94-57.391-138.448-130.039   c-0.174-2.861-0.26-5.721-0.26-8.669c0-76.637,62.072-138.708,138.708-138.708c76.636,0,138.708,62.071,138.708,138.708   c0,2.948-0.087,5.808-0.26,8.669C908.185,688.151,847.934,745.541,774.245,745.541z M932.239,946.827l-1.232-1.469l1.47,1.238   C932.398,946.674,932.317,946.75,932.239,946.827z M1028.68,811.584l-2.525-1.458l2.745,1.004   C1028.828,811.282,1028.752,811.432,1028.68,811.584z"/><circle cx="423.14" cy="606.833" r="70.496"/><circle cx="774.245" cy="606.833" r="70.496"/></g><text x="0" y="1215" fill="#000000" font-size="5px" font-weight="bold" font-family="'Helvetica Neue', Helvetica, Arial-Unicode, Arial, Sans-serif">Created by Fede Macca</text><text x="0" y="1220" fill="#000000" font-size="5px" font-weight="bold" font-family="'Helvetica Neue', Helvetica, Arial-Unicode, Arial, Sans-serif">from the Noun Project</text></svg>